<?xml version="1.0" encoding="UTF-8"?>
<svg xmlns="http://www.w3.org/2000/svg">
	<symbol id="heart" width="16" height="14" viewBox="0 0 16 14">
		<g>
			<path d="M4.85 1C2.72375 1 1 2.72173 1 4.84548C1 8.69096 5.55 12.1869 8 13C10.45 12.1869 15 8.69096 15 4.84548C15 2.72173 13.2762 1 11.15 1C9.848 1 8.6965 1.64569 8 2.63398C7.64499 2.1289 7.17336 1.71669 6.62504 1.43226C6.07672 1.14784 5.46785 0.999565 4.85 1Z" stroke-linecap="round" stroke-linejoin="round" />
		</g>
	</symbol>
	<symbol id="email" width="22" height="16" viewBox="0 0 22 16" fill="none">
		<g>
			<path d="M20 0.5H2C1.60218 0.5 1.22064 0.658035 0.93934 0.93934C0.658035 1.22064 0.5 1.60218 0.5 2V14C0.5 14.3978 0.658035 14.7794 0.93934 15.0607C1.22064 15.342 1.60218 15.5 2 15.5H20C20.3978 15.5 20.7794 15.342 21.0607 15.0607C21.342 14.7794 21.5 14.3978 21.5 14V2C21.5 1.60218 21.342 1.22064 21.0607 0.93934C20.7794 0.658035 20.3978 0.5 20 0.5ZM18.35 2L11 7.085L3.65 2H18.35ZM2 14V2.6825L10.5725 8.615C10.698 8.7021 10.8472 8.74877 11 8.74877C11.1528 8.74877 11.302 8.7021 11.4275 8.615L20 2.6825V14H2Z" fill="#512689" />
		</g>
	</symbol>
	<symbol id="close" width="14" height="14" viewBox="0 0 14 14" fill="none">
		<g>
			<path d="M13.5 0.5L0.5 13.5" stroke-linecap="round" stroke-linejoin="round" />
			<path d="M0.5 0.5L13.5 13.5" stroke-linecap="round" stroke-linejoin="round" />
		</g>
	</symbol>
	<symbol id="more" width="24" height="24" viewBox="0 0 24 24" fill="none">
		<g>
			<path d="M19.497 7.98903L12 15.297L4.50299 7.98903C4.36905 7.85819 4.18923 7.78495 4.00199 7.78495C3.81475 7.78495 3.63494 7.85819 3.50099 7.98903C3.43614 8.05257 3.38461 8.12842 3.34944 8.21213C3.31426 8.29584 3.29614 8.38573 3.29614 8.47653C3.29614 8.56733 3.31426 8.65721 3.34944 8.74092C3.38461 8.82463 3.43614 8.90048 3.50099 8.96403L11.4765 16.74C11.6166 16.8765 11.8044 16.953 12 16.953C12.1956 16.953 12.3834 16.8765 12.5235 16.74L20.499 8.96553C20.5643 8.90193 20.6162 8.8259 20.6517 8.74191C20.6871 8.65792 20.7054 8.56769 20.7054 8.47653C20.7054 8.38537 20.6871 8.29513 20.6517 8.21114C20.6162 8.12715 20.5643 8.05112 20.499 7.98753C20.365 7.85669 20.1852 7.78345 19.998 7.78345C19.8108 7.78345 19.6309 7.85669 19.497 7.98753V7.98903Z" fill="#151317" />
		</g>
	</symbol>
</svg>
