<?xml version="1.0" encoding="UTF-8"?>
<svg xmlns="http://www.w3.org/2000/svg">
	<symbol id="heart" width="16" height="14" viewBox="0 0 16 14">
		<g>
			<path d="M4.85 1C2.72375 1 1 2.72173 1 4.84548C1 8.69096 5.55 12.1869 8 13C10.45 12.1869 15 8.69096 15 4.84548C15 2.72173 13.2762 1 11.15 1C9.848 1 8.6965 1.64569 8 2.63398C7.64499 2.1289 7.17336 1.71669 6.62504 1.43226C6.07672 1.14784 5.46785 0.999565 4.85 1Z" stroke-linecap="round" stroke-linejoin="round" />
		</g>
	</symbol>
	<symbol id="email" width="22" height="16" viewBox="0 0 22 16" fill="none">
		<g>
			<path d="M20 0.5H2C1.60218 0.5 1.22064 0.658035 0.93934 0.93934C0.658035 1.22064 0.5 1.60218 0.5 2V14C0.5 14.3978 0.658035 14.7794 0.93934 15.0607C1.22064 15.342 1.60218 15.5 2 15.5H20C20.3978 15.5 20.7794 15.342 21.0607 15.0607C21.342 14.7794 21.5 14.3978 21.5 14V2C21.5 1.60218 21.342 1.22064 21.0607 0.93934C20.7794 0.658035 20.3978 0.5 20 0.5ZM18.35 2L11 7.085L3.65 2H18.35ZM2 14V2.6825L10.5725 8.615C10.698 8.7021 10.8472 8.74877 11 8.74877C11.1528 8.74877 11.302 8.7021 11.4275 8.615L20 2.6825V14H2Z" fill="#512689" />
		</g>
	</symbol>
	<symbol id="close" width="14" height="14" viewBox="0 0 14 14" fill="none">
		<g>
			<path d="M13.5 0.5L0.5 13.5" stroke-linecap="round" stroke-linejoin="round" />
			<path d="M0.5 0.5L13.5 13.5" stroke-linecap="round" stroke-linejoin="round" />
		</g>
	</symbol>
	<symbol id="more" width="24" height="24" viewBox="0 0 24 24" fill="none">
		<g>
			<path d="M19.497 7.98903L12 15.297L4.50299 7.98903C4.36905 7.85819 4.18923 7.78495 4.00199 7.78495C3.81475 7.78495 3.63494 7.85819 3.50099 7.98903C3.43614 8.05257 3.38461 8.12842 3.34944 8.21213C3.31426 8.29584 3.29614 8.38573 3.29614 8.47653C3.29614 8.56733 3.31426 8.65721 3.34944 8.74092C3.38461 8.82463 3.43614 8.90048 3.50099 8.96403L11.4765 16.74C11.6166 16.8765 11.8044 16.953 12 16.953C12.1956 16.953 12.3834 16.8765 12.5235 16.74L20.499 8.96553C20.5643 8.90193 20.6162 8.8259 20.6517 8.74191C20.6871 8.65792 20.7054 8.56769 20.7054 8.47653C20.7054 8.38537 20.6871 8.29513 20.6517 8.21114C20.6162 8.12715 20.5643 8.05112 20.499 7.98753C20.365 7.85669 20.1852 7.78345 19.998 7.78345C19.8108 7.78345 19.6309 7.85669 19.497 7.98753V7.98903Z" fill="#151317" />
		</g>
	</symbol>
	<symbol id="logout" width="40" height="40" viewBox="0 0 40 40" fill="none">
		<g>
			<path d="M18.79 24.29C19.18 24.68 19.81 24.68 20.2 24.29L23.79 20.7C23.8827 20.6075 23.9563 20.4976 24.0064 20.3766C24.0566 20.2557 24.0824 20.126 24.0824 19.995C24.0824 19.864 24.0566 19.7343 24.0064 19.6134C23.9563 19.4924 23.8827 19.3825 23.79 19.29L20.2 15.7C20.013 15.513 19.7594 15.408 19.495 15.408C19.2306 15.408 18.977 15.513 18.79 15.7C18.603 15.887 18.498 16.1406 18.498 16.405C18.498 16.6694 18.603 16.923 18.79 17.11L20.67 19H12C11.45 19 11 19.45 11 20C11 20.55 11.45 21 12 21H20.67L18.79 22.88C18.4 23.27 18.41 23.91 18.79 24.29ZM27 11H13C12.4696 11 11.9609 11.2107 11.5858 11.5858C11.2107 11.9609 11 12.4696 11 13V16C11 16.55 11.45 17 12 17C12.55 17 13 16.55 13 16V14C13 13.45 13.45 13 14 13H26C26.55 13 27 13.45 27 14V26C27 26.55 26.55 27 26 27H14C13.45 27 13 26.55 13 26V24C13 23.45 12.55 23 12 23C11.45 23 11 23.45 11 24V27C11 28.1 11.9 29 13 29H27C28.1 29 29 28.1 29 27V13C29 11.9 28.1 11 27 11Z" fill="#F8F8F8" />
		</g>
	</symbol>
	<symbol id="arrowBack" width="40" height="40" viewBox="0 0 40 40" fill="none">
		<g>
			<path d="M22.8375 27.0013C22.6881 27.0018 22.5405 26.9688 22.4055 26.9048C22.2705 26.8407 22.1516 26.7473 22.0575 26.6313L17.2275 20.6313C17.0804 20.4523 17 20.2279 17 19.9963C17 19.7646 17.0804 19.5402 17.2275 19.3613L22.2275 13.3613C22.3972 13.157 22.6411 13.0286 22.9056 13.0042C23.17 12.9799 23.4333 13.0615 23.6375 13.2313C23.8417 13.401 23.9701 13.6449 23.9945 13.9093C24.0189 14.1738 23.9372 14.437 23.7675 14.6413L19.2975 20.0013L23.6175 25.3613C23.7398 25.508 23.8174 25.6868 23.8413 25.8763C23.8652 26.0659 23.8343 26.2583 23.7522 26.4308C23.6702 26.6034 23.5404 26.7488 23.3783 26.8499C23.2162 26.9509 23.0285 27.0035 22.8375 27.0013Z" fill="#F8F8F8" />
		</g>
	</symbol>
</svg>
